<svg xml:space="preserve" style="max-height: 500px" viewBox="5.25 0 90.75 101.5" y="0px" x="0px" version="1.1" xmlns:xlink="http://www.w3.org/1999/xlink" xmlns="http://www.w3.org/2000/svg" width="90.75" height="101.5"><g><path d="M15,24.8h1.8L22,89.2c0.3,3.9,3.6,6.9,7.5,6.9h41c3.9,0,7.2-3,7.5-6.9l5.2-64.4H85c3.3,0,6-2.7,6-6s-2.7-6-6-6H63.5v-2.6   c0-3.5-2.9-6.4-6.4-6.4H42.9c-3.5,0-6.4,2.9-6.4,6.4v2.6H15c-3.3,0-6,2.7-6,6S11.7,24.8,15,24.8z M74,88.9   c-0.1,1.8-1.7,3.2-3.5,3.2h-41c-1.8,0-3.4-1.4-3.5-3.2l-5.2-64.1h58.3L74,88.9z M40.5,10.3c0-1.3,1.1-2.4,2.4-2.4h14.2   c1.3,0,2.4,1.1,2.4,2.4v2.6h-19V10.3z M15,16.8h23.5h23H85c1.1,0,2,0.9,2,2s-0.9,2-2,2h-3.7H18.7H15c-1.1,0-2-0.9-2-2   S13.9,16.8,15,16.8z"/><path d="M37.3,86.2c1.1,0,2-0.9,2-2V31.8c0-1.1-0.9-2-2-2s-2,0.9-2,2v52.4C35.3,85.3,36.2,86.2,37.3,86.2z"/><path d="M50,86.7c1.1,0,2-0.9,2-2V32.3c0-1.1-0.9-2-2-2s-2,0.9-2,2v52.4C48,85.8,48.9,86.7,50,86.7z"/><path d="M62.7,87.2c1.1,0,2-0.9,2-2V32.8c0-1.1-0.9-2-2-2s-2,0.9-2,2v52.4C60.7,86.3,61.6,87.2,62.7,87.2z"/></g><text font-family="'Helvetica Neue', Helvetica, Arial-Unicode, Arial, Sans-serif" font-weight="bold" font-size="5px" fill="#000000" y="115" x="0">Created by Tomacon</text><text font-family="'Helvetica Neue', Helvetica, Arial-Unicode, Arial, Sans-serif" font-weight="bold" font-size="5px" fill="#000000" y="120" x="0">from the Noun Project</text></svg>