<svg xmlns="http://www.w3.org/2000/svg">
  <defs>
    <symbol id="icon-font" viewBox="0 0 32 40">
      <title>font, size, write, letter, text</title>
      <path d="M28,1H4A3,3,0,0,0,1,4V28a3,3,0,0,0,3,3H28a3,3,0,0,0,3-3V4A3,3,0,0,0,28,1ZM16.85,22.94a1,1,0,0,1-.35.06,1,1,0,0,1-.94-.65l-1.07-2.87h-5L8.44,22.35a1,1,0,1,1-1.88-.7l4.5-12a1,1,0,0,1,1.88,0l4.5,12A1,1,0,0,1,16.85,22.94ZM25.5,22a1,1,0,0,1-1,1,1,1,0,0,1-.83-.48A3.05,3.05,0,0,1,22,23h-.38a3.24,3.24,0,0,1,0-6.48H23.5v-.76A1.71,1.71,0,0,0,21.85,14a1.6,1.6,0,0,0-.93.31,1,1,0,1,1-1.18-1.61,3.52,3.52,0,0,1,2.11-.7,3.71,3.71,0,0,1,3.65,3.76Z"/>
      <path d="M23.5,18.52H21.65a1.24,1.24,0,0,0,0,2.48H22a1.11,1.11,0,0,0,.78-.33L23.5,20Z"/>
      <polygon points="10.26 17.48 13.74 17.48 12 12.85 10.26 17.48"/>
    </symbol>
    <symbol id="icon-arrow" viewBox="0 0 32 40">
      <title>Artboard 22</title>
      <polygon points="30 16 21.906 30.018 14.542 30.018 22.626 16 14.542 1.982 21.906 1.982 30 16"/>
      <polygon points="17.458 16 9.364 30.018 2 30.018 10.084 16 2 1.982 9.364 1.982 17.458 16"/>
    </symbol>
    <symbol id="icon-border" viewBox="1.4864864864864868 1.0700000000000003 97.29729729729729 95.58">
      <path d="m90.781 66.438h-56.594c0.039062-15.625-0.027344-42.5 0-57.844 0-0.62109-0.24609-1.2188-0.68359-1.6562-0.44141-0.44141-1.0391-0.6875-1.6602-0.6875h-8.25c-0.62109 0-1.2188 0.24609-1.6562 0.6875-0.44141 0.4375-0.6875 1.0352-0.6875 1.6562 0.046875 7.3125-0.035156 17.746 0 24.969v43.469c0 0.62109 0.24609 1.2188 0.6875 1.6562 0.4375 0.44141 1.0352 0.6875 1.6562 0.6875h67.188c0.62109 0 1.2188-0.24609 1.6562-0.6875 0.44141-0.4375 0.6875-1.0352 0.6875-1.6562v-8.25c0-0.62109-0.24609-1.2188-0.6875-1.6562-0.4375-0.44141-0.6875-1.0352-0.6875-1.6562z"/>
      <path d="m6.875 22.969v8.25c0 0.62109 0.24609 1.2188 0.6875 1.6562 0.4375 0.44141 1.0352 0.6875 1.6562 0.6875h10.469v-3.125-9.8125h-10.469c-1.293 0.003906-2.3398 1.0508-2.3438 2.3438z"/>
      <path d="m65.812 64.875c2.0391 0.003906 7.7031-0.003906 9.8125 0h3.125v-41.906c-0.007812-1.2891-1.0547-2.3359-2.3438-2.3438h-40.656c0.003906 1.9688-0.003906 7.7539 0 9.8125v3.125h30.062z"/>
      <path d="m68.938 80.938h-3.125v10.469c0 0.62109 0.24609 1.2188 0.6875 1.6562 0.4375 0.44141 1.0352 0.6875 1.6562 0.6875h8.25c1.293-0.003906 2.3398-1.0508 2.3438-2.3438v-10.469h-9.8125z"/>
    </symbol>
    <symbol id="icon-options" viewBox="0 26.02 98.94743902439025 50.5309">
      <path fill-rule="evenodd" d="m8.0859 66.09c2.1797 0 3.9414 1.7656 3.9414 3.9453 0 2.1797-1.7617 3.9453-3.9414 3.9453h-0.15625c-2.1797 0-3.9414-1.7656-3.9414-3.9453 0-2.1797 1.7617-3.9453 3.9414-3.9453zm0-40.066c2.1797 0 3.9414 1.7656 3.9414 3.9453s-1.7617 3.9453-3.9414 3.9453h-0.15625c-2.1797 0-3.9414-1.7656-3.9414-3.9453s1.7617-3.9453 3.9414-3.9453zm0 20.184c2.1797 0 3.9414 1.7656 3.9414 3.9453 0 2.1797-1.7617 3.9453-3.9414 3.9453h-0.15625c-2.1797 0-3.9414-1.7656-3.9414-3.9453 0-2.1797 1.7617-3.9453 3.9414-3.9453zm83.992 19.887c2.1719 0 3.9414 1.7656 3.9414 3.9453 0 2.1797-1.7695 3.9453-3.9414 3.9453l-69.371-0.007813c-2.1797 0-3.9414-1.7656-3.9414-3.9453s1.7617-3.9453 3.9414-3.9453h69.367zm0-40.066c2.1719 0 3.9414 1.7656 3.9414 3.9453 0 2.1797-1.7695 3.9453-3.9414 3.9453l-69.371-0.007813c-2.1797 0-3.9414-1.7656-3.9414-3.9453 0-2.1797 1.7617-3.9453 3.9414-3.9453h69.367zm0 20.184c2.1719 0 3.9414 1.7656 3.9414 3.9453s-1.7695 3.9453-3.9414 3.9453l-69.371-0.007812c-2.1797 0-3.9414-1.7656-3.9414-3.9453 0-2.1797 1.7617-3.9453 3.9414-3.9453h69.367z"/>
    </symbol>
  </defs>
</svg>
