<svg viewBox="0 26.02 98.94743902439025 50.5309" version="1.1" xmlns="http://www.w3.org/2000/svg" style="max-height: 500px" width="98.94743902439025" height="50.5309">
 <path fill-rule="evenodd" d="m8.0859 66.09c2.1797 0 3.9414 1.7656 3.9414 3.9453 0 2.1797-1.7617 3.9453-3.9414 3.9453h-0.15625c-2.1797 0-3.9414-1.7656-3.9414-3.9453 0-2.1797 1.7617-3.9453 3.9414-3.9453zm0-40.066c2.1797 0 3.9414 1.7656 3.9414 3.9453s-1.7617 3.9453-3.9414 3.9453h-0.15625c-2.1797 0-3.9414-1.7656-3.9414-3.9453s1.7617-3.9453 3.9414-3.9453zm0 20.184c2.1797 0 3.9414 1.7656 3.9414 3.9453 0 2.1797-1.7617 3.9453-3.9414 3.9453h-0.15625c-2.1797 0-3.9414-1.7656-3.9414-3.9453 0-2.1797 1.7617-3.9453 3.9414-3.9453zm83.992 19.887c2.1719 0 3.9414 1.7656 3.9414 3.9453 0 2.1797-1.7695 3.9453-3.9414 3.9453l-69.371-0.007813c-2.1797 0-3.9414-1.7656-3.9414-3.9453s1.7617-3.9453 3.9414-3.9453h69.367zm0-40.066c2.1719 0 3.9414 1.7656 3.9414 3.9453 0 2.1797-1.7695 3.9453-3.9414 3.9453l-69.371-0.007813c-2.1797 0-3.9414-1.7656-3.9414-3.9453 0-2.1797 1.7617-3.9453 3.9414-3.9453h69.367zm0 20.184c2.1719 0 3.9414 1.7656 3.9414 3.9453s-1.7695 3.9453-3.9414 3.9453l-69.371-0.007812c-2.1797 0-3.9414-1.7656-3.9414-3.9453 0-2.1797 1.7617-3.9453 3.9414-3.9453h69.367z"/>
<text fill="#000000" font-family="Arbeit Regular, Helvetica, Arial-Unicode, Arial, Sans-serif" font-weight="bold" font-size="5.0" y="117.5" x="0.0">Created by etika ariatna</text><text fill="#000000" font-family="Arbeit Regular, Helvetica, Arial-Unicode, Arial, Sans-serif" font-weight="bold" font-size="5.0" y="122.5" x="0.0">from Noun Project</text></svg>