<svg xmlns="http://www.w3.org/2000/svg" viewBox="0 0 32 40" x="0px" y="0px"><title>font, size, write, letter, text</title><path d="M28,1H4A3,3,0,0,0,1,4V28a3,3,0,0,0,3,3H28a3,3,0,0,0,3-3V4A3,3,0,0,0,28,1ZM16.85,22.94a1,1,0,0,1-.35.06,1,1,0,0,1-.94-.65l-1.07-2.87h-5L8.44,22.35a1,1,0,1,1-1.88-.7l4.5-12a1,1,0,0,1,1.88,0l4.5,12A1,1,0,0,1,16.85,22.94ZM25.5,22a1,1,0,0,1-1,1,1,1,0,0,1-.83-.48A3.05,3.05,0,0,1,22,23h-.38a3.24,3.24,0,0,1,0-6.48H23.5v-.76A1.71,1.71,0,0,0,21.85,14a1.6,1.6,0,0,0-.93.31,1,1,0,1,1-1.18-1.61,3.52,3.52,0,0,1,2.11-.7,3.71,3.71,0,0,1,3.65,3.76Z"/><path d="M23.5,18.52H21.65a1.24,1.24,0,0,0,0,2.48H22a1.11,1.11,0,0,0,.78-.33L23.5,20Z"/><polygon points="10.26 17.48 13.74 17.48 12 12.85 10.26 17.48"/><text x="0" y="47" fill="#000000" font-size="5px" font-weight="bold" font-family="'Helvetica Neue', Helvetica, Arial-Unicode, Arial, Sans-serif">Created by Yogi Aprelliyanto</text><text x="0" y="52" fill="#000000" font-size="5px" font-weight="bold" font-family="'Helvetica Neue', Helvetica, Arial-Unicode, Arial, Sans-serif">from the Noun Project</text></svg>