<svg viewBox="1.4864864864864868 1.0700000000000003 97.29729729729729 95.58" version="1.1" xmlns="http://www.w3.org/2000/svg" style="max-height: 500px" width="97.29729729729729" height="95.58">
 <path d="m90.781 66.438h-56.594c0.039062-15.625-0.027344-42.5 0-57.844 0-0.62109-0.24609-1.2188-0.68359-1.6562-0.44141-0.44141-1.0391-0.6875-1.6602-0.6875h-8.25c-0.62109 0-1.2188 0.24609-1.6562 0.6875-0.44141 0.4375-0.6875 1.0352-0.6875 1.6562 0.046875 7.3125-0.035156 17.746 0 24.969v43.469c0 0.62109 0.24609 1.2188 0.6875 1.6562 0.4375 0.44141 1.0352 0.6875 1.6562 0.6875h67.188c0.62109 0 1.2188-0.24609 1.6562-0.6875 0.44141-0.4375 0.6875-1.0352 0.6875-1.6562v-8.25c0-0.62109-0.24609-1.2188-0.6875-1.6562-0.4375-0.44141-1.0352-0.6875-1.6562-0.6875z"/>
 <path d="m6.875 22.969v8.25c0 0.62109 0.24609 1.2188 0.6875 1.6562 0.4375 0.44141 1.0352 0.6875 1.6562 0.6875h10.469v-3.125-9.8125h-10.469c-1.293 0.003906-2.3398 1.0508-2.3438 2.3438z"/>
 <path d="m65.812 64.875c2.0391 0.003906 7.7031-0.003906 9.8125 0h3.125v-41.906c-0.007812-1.2891-1.0547-2.3359-2.3438-2.3438h-40.656c0.003906 1.9688-0.003906 7.7539 0 9.8125v3.125h30.062z"/>
 <path d="m68.938 80.938h-3.125v10.469c0 0.62109 0.24609 1.2188 0.6875 1.6562 0.4375 0.44141 1.0352 0.6875 1.6562 0.6875h8.25c1.293-0.003906 2.3398-1.0508 2.3438-2.3438v-10.469h-9.8125z"/>
<text fill="#000000" font-family="Arbeit Regular, Helvetica, Arial-Unicode, Arial, Sans-serif" font-weight="bold" font-size="5.0" y="117.5" x="0.0">Created by Darwin Mulya</text><text fill="#000000" font-family="Arbeit Regular, Helvetica, Arial-Unicode, Arial, Sans-serif" font-weight="bold" font-size="5.0" y="122.5" x="0.0">from Noun Project</text></svg>